<svg viewBox="0 0 975 571" xmlns="http://www.w3.org/2000/svg" xmlns:xlink="http://www.w3.org/1999/xlink"><style>:root&gt;svg{display:none}:root&gt;svg:target{display:block}</style><svg fill="none" viewBox="0 0 5 10" id="Chevron_Right_1_" xmlns="http://www.w3.org/2000/svg"><path d="M4.846 4.643L.799.148a.424.424 0 00-.644 0 .544.544 0 000 .713L3.882 5 .156 9.139a.545.545 0 000 .713.424.424 0 00.643 0l4.047-4.495a.55.55 0 000-.714z" fill="#fff"/></svg><svg fill="none" viewBox="0 0 17 20" id="Location" xmlns="http://www.w3.org/2000/svg"><path fill-rule="evenodd" clip-rule="evenodd" d="M8.53.002c2.26.01 4.42.91 6 2.49A8.398 8.398 0 0117 8.462v.05c-.06 3.03-1.76 5.82-3.88 8a22.12 22.12 0 01-3.98 3.24c-.39.33-.96.33-1.35 0-2.15-1.4-4.05-3.16-5.59-5.21A10.807 10.807 0 010 8.392c.02-4.65 3.84-8.4 8.53-8.39zm0 11.26c.71 0 1.39-.27 1.89-.76.52-.51.811-1.189.811-1.9 0-1.48-1.211-2.67-2.701-2.67s-2.69 1.19-2.69 2.67c0 1.461 1.18 2.64 2.66 2.66h.03z" fill="#fff"/></svg><svg fill="none" viewBox="0 0 35 14" id="arrow-black" xmlns="http://www.w3.org/2000/svg"><path d="M.762 6.3h31.914l-5.82-5.093a.66.66 0 01-.027-.99.81.81 0 011.078-.024l6.646 5.817c.288.265.447.616.447.99s-.159.726-.46 1.002l-6.634 5.805a.796.796 0 01-.525.193.794.794 0 01-.552-.217.66.66 0 01.026-.99L32.7 7.7H.762C.342 7.7 0 7.386 0 7c0-.386.341-.7.762-.7z" fill="#202025"/></svg><svg fill="none" viewBox="0 0 35 14" id="arrow-white" xmlns="http://www.w3.org/2000/svg"><path d="M.762 6.3h31.914l-5.82-5.093a.66.66 0 01-.027-.99.81.81 0 011.078-.024l6.646 5.817c.288.265.447.616.447.99s-.159.726-.46 1.002l-6.634 5.805a.796.796 0 01-.525.193.794.794 0 01-.552-.217.66.66 0 01.026-.99L32.7 7.7H.762C.342 7.7 0 7.386 0 7c0-.386.341-.7.762-.7z" fill="#fff"/></svg><svg fill="none" viewBox="0 0 25 2" id="burger-mask" xmlns="http://www.w3.org/2000/svg"><rect width="25" height="2" rx="1" fill="url(#epaint0_linear_220:7625)"/><defs><linearGradient id="epaint0_linear_220:7625" x1="17.513" y1=".322" x2="17.015" y2="3.775" gradientUnits="userSpaceOnUse"><stop stop-color="#853FF8"/><stop offset="1" stop-color="#AF29F7"/></linearGradient></defs></svg><svg fill="none" viewBox="0 0 447 571" id="dark-box_decor_L" xmlns="http://www.w3.org/2000/svg"><path d="M-90.222 571H-524a4 4 0 01-4-4V4a4 4 0 014-4h966.706c3.511 0 5.318 4.2 2.905 6.75l-532.928 563a4 4 0 01-2.905 1.25z" fill="url(#fpaint0_linear_131:7829)"/><defs><linearGradient id="fpaint0_linear_131:7829" x1="-234.5" y1="479" x2="268" y2="0" gradientUnits="userSpaceOnUse"><stop stop-color="#853FF8"/><stop offset="1" stop-color="#AF29F7"/></linearGradient></defs></svg><svg fill="none" viewBox="0 0 975 571" id="dark-box_decor_R" xmlns="http://www.w3.org/2000/svg"><path d="M537.221 0H971a4 4 0 014 4v563a4 4 0 01-4 4H4.294c-3.51 0-5.318-4.2-2.905-6.75l532.928-563A3.999 3.999 0 01537.221 0z" fill="url(#gpaint0_linear_58:6217)"/><defs><linearGradient id="gpaint0_linear_58:6217" x1="681.5" y1="92" x2="179" y2="571" gradientUnits="userSpaceOnUse"><stop stop-color="#853FF8"/><stop offset="1" stop-color="#AF29F7"/></linearGradient></defs></svg><svg fill="none" viewBox="0 0 16 14" id="email" xmlns="http://www.w3.org/2000/svg"><path d="M1.406 1.668h13.188c.216 0 .419.047.602.123l-7.165 6.27-1.606-1.35V6.71L.804 1.79c.183-.076.386-.123.602-.123zM.14 2.371L5.43 7 .142 11.628a1.093 1.093 0 01-.14-.527V2.898c0-.19.052-.367.14-.527zm15.72 0c.087.16.14.338.14.527v8.203c0 .19-.053.367-.14.527L10.57 7l5.29-4.629z" fill="#7E839D"/><path d="M6.094 7.58L7.7 8.93c.091.08.211.12.331.12.12 0 .24-.04.331-.12l1.544-1.35 5.29 4.629a1.556 1.556 0 01-.602.123H1.406c-.216 0-.419-.046-.602-.123l5.29-4.629z" fill="#7E839D"/></svg><svg fill="none" viewBox="0 0 14 26" id="facebook" xmlns="http://www.w3.org/2000/svg"><path d="M8.811 25.5V14.097h3.826l.574-4.445h-4.4V6.814c0-1.286.356-2.163 2.203-2.163l2.352-.001V.674C12.959.621 11.563.5 9.938.5 6.545.5 4.222 2.571 4.222 6.374v3.278H.384v4.445h3.838V25.5h4.59z" fill="#fff"/></svg><svg fill="none" viewBox="0 0 14 14" id="instagramm" xmlns="http://www.w3.org/2000/svg"><path fill-rule="evenodd" clip-rule="evenodd" d="M7 .6C5.264.6 5.045.607 4.363.638 3.68.67 3.215.778 2.808.936c-.42.163-.778.382-1.133.738a3.142 3.142 0 00-.739 1.133c-.159.407-.267.873-.297 1.554C.609 5.043.6 5.26.6 7c0 1.738.008 1.955.039 2.638.031.681.139 1.146.297 1.553.164.421.382.778.738 1.134.356.356.713.575 1.134.739.407.158.872.266 1.553.297.683.031.9.039 2.639.039 1.738 0 1.956-.008 2.638-.039.682-.031 1.147-.139 1.555-.297a3.13 3.13 0 001.132-.739c.356-.356.575-.713.74-1.133.156-.408.264-.873.296-1.554.031-.683.04-.9.04-2.638s-.009-1.957-.04-2.64c-.032-.68-.14-1.146-.297-1.553a3.141 3.141 0 00-.739-1.133 3.128 3.128 0 00-1.133-.738C10.784.777 10.32.669 9.637.638 8.955.608 8.737.6 7 .6zm-.573 1.153H7c1.708 0 1.911.006 2.586.037.624.028.963.133 1.188.22.299.116.512.255.736.479.224.224.362.437.479.736.087.225.191.564.22 1.188.03.675.037.877.037 2.585s-.006 1.91-.037 2.586c-.029.624-.133.962-.22 1.188a1.98 1.98 0 01-.48.735 1.98 1.98 0 01-.735.478c-.225.088-.564.192-1.188.221-.675.03-.878.037-2.586.037-1.71 0-1.912-.006-2.586-.037-.624-.029-.963-.133-1.189-.22a1.982 1.982 0 01-.736-.48 1.984 1.984 0 01-.479-.735c-.087-.225-.192-.564-.22-1.188-.03-.675-.037-.877-.037-2.586 0-1.71.006-1.911.037-2.586.028-.624.133-.962.22-1.188a1.97 1.97 0 01.48-.736c.223-.224.436-.363.735-.479.226-.088.565-.192 1.189-.22.59-.027.819-.035 2.012-.037v.002zm3.99 1.063a.768.768 0 100 1.535.768.768 0 000-1.535zm-3.416.897a3.287 3.287 0 100 6.574 3.287 3.287 0 000-6.574zm0 1.153a2.133 2.133 0 110 4.267 2.133 2.133 0 010-4.267z" fill="#fff"/></svg><svg fill="none" viewBox="0 0 15 15" id="label-name" xmlns="http://www.w3.org/2000/svg"><path d="M7.387 7.935a1.601 1.601 0 100-3.203 1.601 1.601 0 000 3.203zm0-2.58a.982.982 0 110 1.964.982.982 0 010-1.964zm-.001 3.172a2.403 2.403 0 00-1.74.728 2.569 2.569 0 00-.719 1.818c0 .171.139.31.31.31h4.299a.31.31 0 00.31-.31c0-.7-.254-1.344-.719-1.818a2.403 2.403 0 00-1.74-.728zm-1.818 2.237a1.9 1.9 0 01.52-1.075 1.825 1.825 0 012.596 0 1.9 1.9 0 01.52 1.075H5.569z" fill="#7E839D"/><path d="M11.104.47H3.67a1.55 1.55 0 00-1.55 1.55v10.965a1.55 1.55 0 001.55 1.548h7.434a1.55 1.55 0 001.548-1.548V2.019A1.55 1.55 0 0011.104.471zm.929 12.514a.932.932 0 01-.93.93H3.67a.932.932 0 01-.93-.93V2.02a.932.932 0 01.93-.929h7.434a.932.932 0 01.929.93v10.965z" fill="#7E839D"/><path d="M6.095 2.55h2.478a.31.31 0 000-.62H6.095a.31.31 0 100 .62z" fill="#7E839D"/></svg><svg fill="none" viewBox="0 0 10 16" id="login" xmlns="http://www.w3.org/2000/svg"><path d="M4.762 8.41H.352C.159 8.41 0 8.226 0 8c0-.227.158-.41.353-.41h4.409L3.328 5.7a.456.456 0 01.03-.576c.145-.15.368-.134.496.035l1.951 2.57a.459.459 0 01-.002.545L3.854 10.84a.318.318 0 01-.496.036.457.457 0 01-.03-.577l1.434-1.89zm.606 7.578c-.2.056-.402-.086-.45-.316-.049-.23.074-.463.275-.518.481-.135.897-.23 1.279-.316 1.81-.413 2.78-.634 2.78-3.535V4.46c0-2.71-1.026-2.932-2.726-3.297A20.97 20.97 0 015.193.845c-.2-.056-.324-.287-.275-.518.048-.23.25-.372.45-.316.455.127.892.221 1.296.308C8.744.767 10 1.037 10 4.46v6.843c0 3.607-1.182 3.877-3.385 4.379-.392.09-.819.186-1.247.306z" fill="#fff"/></svg><svg fill="none" viewBox="0 0 18 18" id="monet" xmlns="http://www.w3.org/2000/svg"><path d="M17 7.385c0 1.699-3.583 3.076-8 3.076S1 9.084 1 7.385m16 3.307c0 1.7-3.583 3.077-8 3.077s-8-1.377-8-3.077m0-6.644v9.904C1 15.635 4.583 17 9 17s8-1.365 8-3.048V4.048m0 .029c0 1.7-3.582 3.077-8 3.077S1 5.776 1 4.077C1 2.377 4.582 1 9 1s8 1.378 8 3.077z" stroke="#fff" stroke-miterlimit="10" stroke-linecap="round"/></svg><svg fill="none" viewBox="0 0 12 12" id="phone" xmlns="http://www.w3.org/2000/svg"><path d="M11.037 7.877a6.813 6.813 0 01-2.14-.341c-.335-.114-.746-.01-.95.2l-1.35 1.019C5.032 7.92 4.068 6.956 3.244 5.403l.99-1.314a.97.97 0 00.238-.983A6.823 6.823 0 014.13.963.964.964 0 003.167 0H.963A.964.964 0 000 .963C0 7.049 4.951 12 11.037 12a.964.964 0 00.963-.963V8.84a.964.964 0 00-.963-.962z" fill="#7E839D"/></svg><svg fill="none" viewBox="0 0 26 22" id="telegram" xmlns="http://www.w3.org/2000/svg"><path d="M10.31 14.315l-.414 5.816c.592 0 .848-.254 1.155-.56l2.774-2.65 5.748 4.21c1.054.587 1.797.277 2.081-.97l3.773-17.68h.001c.335-1.56-.563-2.168-1.59-1.786L1.66 9.185C.147 9.773.17 10.617 1.403 11l5.67 1.763 13.17-8.24c.62-.41 1.183-.183.72.227L10.31 14.315z" fill="#fff"/></svg></svg>