<svg viewBox="0 0 975 571" xmlns="http://www.w3.org/2000/svg" xmlns:xlink="http://www.w3.org/1999/xlink"><style>:root&gt;svg{display:none}:root&gt;svg:target{display:block}</style><svg fill="none" viewBox="0 0 17 20" id="Location" xmlns="http://www.w3.org/2000/svg"><path fill-rule="evenodd" clip-rule="evenodd" d="M8.53.002c2.26.01 4.42.91 6 2.49A8.398 8.398 0 0117 8.462v.05c-.06 3.03-1.76 5.82-3.88 8a22.12 22.12 0 01-3.98 3.24c-.39.33-.96.33-1.35 0-2.15-1.4-4.05-3.16-5.59-5.21A10.807 10.807 0 010 8.392c.02-4.65 3.84-8.4 8.53-8.39zm0 11.26c.71 0 1.39-.27 1.89-.76.52-.51.811-1.189.811-1.9 0-1.48-1.211-2.67-2.701-2.67s-2.69 1.19-2.69 2.67c0 1.461 1.18 2.64 2.66 2.66h.03z" fill="#fff"/></svg><svg fill="none" viewBox="0 0 35 14" id="arrow-black" xmlns="http://www.w3.org/2000/svg"><path d="M.762 6.3h31.914l-5.82-5.093a.66.66 0 01-.027-.99.81.81 0 011.078-.024l6.646 5.817c.288.265.447.616.447.99s-.159.726-.46 1.002l-6.634 5.805a.796.796 0 01-.525.193.794.794 0 01-.552-.217.66.66 0 01.026-.99L32.7 7.7H.762C.342 7.7 0 7.386 0 7c0-.386.341-.7.762-.7z" fill="#202025"/></svg><svg fill="none" viewBox="0 0 35 14" id="arrow-white" xmlns="http://www.w3.org/2000/svg"><path d="M.762 6.3h31.914l-5.82-5.093a.66.66 0 01-.027-.99.81.81 0 011.078-.024l6.646 5.817c.288.265.447.616.447.99s-.159.726-.46 1.002l-6.634 5.805a.796.796 0 01-.525.193.794.794 0 01-.552-.217.66.66 0 01.026-.99L32.7 7.7H.762C.342 7.7 0 7.386 0 7c0-.386.341-.7.762-.7z" fill="#fff"/></svg><svg fill="none" viewBox="0 0 25 2" id="burger-mask" xmlns="http://www.w3.org/2000/svg"><rect width="25" height="2" rx="1" fill="url(#dpaint0_linear_220:7625)"/><defs><linearGradient id="dpaint0_linear_220:7625" x1="17.513" y1=".322" x2="17.015" y2="3.775" gradientUnits="userSpaceOnUse"><stop stop-color="#853FF8"/><stop offset="1" stop-color="#AF29F7"/></linearGradient></defs></svg><svg fill="none" viewBox="0 0 447 571" id="dark-box_decor_L" xmlns="http://www.w3.org/2000/svg"><path d="M-90.222 571H-524a4 4 0 01-4-4V4a4 4 0 014-4h966.706c3.511 0 5.318 4.2 2.905 6.75l-532.928 563a4 4 0 01-2.905 1.25z" fill="url(#epaint0_linear_131:7829)"/><defs><linearGradient id="epaint0_linear_131:7829" x1="-234.5" y1="479" x2="268" y2="0" gradientUnits="userSpaceOnUse"><stop stop-color="#853FF8"/><stop offset="1" stop-color="#AF29F7"/></linearGradient></defs></svg><svg fill="none" viewBox="0 0 975 571" id="dark-box_decor_R" xmlns="http://www.w3.org/2000/svg"><path d="M537.221 0H971a4 4 0 014 4v563a4 4 0 01-4 4H4.294c-3.51 0-5.318-4.2-2.905-6.75l532.928-563A3.999 3.999 0 01537.221 0z" fill="url(#fpaint0_linear_58:6217)"/><defs><linearGradient id="fpaint0_linear_58:6217" x1="681.5" y1="92" x2="179" y2="571" gradientUnits="userSpaceOnUse"><stop stop-color="#853FF8"/><stop offset="1" stop-color="#AF29F7"/></linearGradient></defs></svg><svg fill="none" viewBox="0 0 16 14" id="email" xmlns="http://www.w3.org/2000/svg"><path d="M1.406 1.668h13.188c.216 0 .419.047.602.123l-7.165 6.27-1.606-1.35V6.71L.804 1.79c.183-.076.386-.123.602-.123zM.14 2.371L5.43 7 .142 11.628a1.093 1.093 0 01-.14-.527V2.898c0-.19.052-.367.14-.527zm15.72 0c.087.16.14.338.14.527v8.203c0 .19-.053.367-.14.527L10.57 7l5.29-4.629z" fill="#7E839D"/><path d="M6.094 7.58L7.7 8.93c.091.08.211.12.331.12.12 0 .24-.04.331-.12l1.544-1.35 5.29 4.629a1.556 1.556 0 01-.602.123H1.406c-.216 0-.419-.046-.602-.123l5.29-4.629z" fill="#7E839D"/></svg><svg fill="none" viewBox="0 0 14 26" id="facebook" xmlns="http://www.w3.org/2000/svg"><path d="M8.811 25.5V14.097h3.826l.574-4.445h-4.4V6.814c0-1.286.356-2.163 2.203-2.163l2.352-.001V.674C12.959.621 11.563.5 9.938.5 6.545.5 4.222 2.571 4.222 6.374v3.278H.384v4.445h3.838V25.5h4.59z" fill="#fff"/></svg><svg fill="none" viewBox="0 0 15 15" id="label-name" xmlns="http://www.w3.org/2000/svg"><path d="M7.387 7.935a1.601 1.601 0 100-3.203 1.601 1.601 0 000 3.203zm0-2.58a.982.982 0 110 1.964.982.982 0 010-1.964zm-.001 3.172a2.403 2.403 0 00-1.74.728 2.569 2.569 0 00-.719 1.818c0 .171.139.31.31.31h4.299a.31.31 0 00.31-.31c0-.7-.254-1.344-.719-1.818a2.403 2.403 0 00-1.74-.728zm-1.818 2.237a1.9 1.9 0 01.52-1.075 1.825 1.825 0 012.596 0 1.9 1.9 0 01.52 1.075H5.569z" fill="#7E839D"/><path d="M11.104.47H3.67a1.55 1.55 0 00-1.55 1.55v10.965a1.55 1.55 0 001.55 1.548h7.434a1.55 1.55 0 001.548-1.548V2.019A1.55 1.55 0 0011.104.471zm.929 12.514a.932.932 0 01-.93.93H3.67a.932.932 0 01-.93-.93V2.02a.932.932 0 01.93-.929h7.434a.932.932 0 01.929.93v10.965z" fill="#7E839D"/><path d="M6.095 2.55h2.478a.31.31 0 000-.62H6.095a.31.31 0 100 .62z" fill="#7E839D"/></svg><svg fill="none" viewBox="0 0 12 12" id="phone" xmlns="http://www.w3.org/2000/svg"><path d="M11.037 7.877a6.813 6.813 0 01-2.14-.341c-.335-.114-.746-.01-.95.2l-1.35 1.019C5.032 7.92 4.068 6.956 3.244 5.403l.99-1.314a.97.97 0 00.238-.983A6.823 6.823 0 014.13.963.964.964 0 003.167 0H.963A.964.964 0 000 .963C0 7.049 4.951 12 11.037 12a.964.964 0 00.963-.963V8.84a.964.964 0 00-.963-.962z" fill="#7E839D"/></svg><svg fill="none" viewBox="0 0 26 22" id="telegram" xmlns="http://www.w3.org/2000/svg"><path d="M10.31 14.315l-.414 5.816c.592 0 .848-.254 1.155-.56l2.774-2.65 5.748 4.21c1.054.587 1.797.277 2.081-.97l3.773-17.68h.001c.335-1.56-.563-2.168-1.59-1.786L1.66 9.185C.147 9.773.17 10.617 1.403 11l5.67 1.763 13.17-8.24c.62-.41 1.183-.183.72.227L10.31 14.315z" fill="#fff"/></svg></svg>