<svg width="14" height="14" fill="none" xmlns="http://www.w3.org/2000/svg"><path fill-rule="evenodd" clip-rule="evenodd" d="M7 .6C5.264.6 5.045.607 4.363.638 3.68.67 3.215.778 2.808.936c-.42.163-.778.382-1.133.738a3.142 3.142 0 00-.739 1.133c-.159.407-.267.873-.297 1.554C.609 5.043.6 5.26.6 7c0 1.738.008 1.955.039 2.638.031.681.139 1.146.297 1.553.164.421.382.778.738 1.134.356.356.713.575 1.134.739.407.158.872.266 1.553.297.683.031.9.039 2.639.039 1.738 0 1.956-.008 2.638-.039.682-.031 1.147-.139 1.555-.297a3.13 3.13 0 001.132-.739c.356-.356.575-.713.74-1.133.156-.408.264-.873.296-1.554.031-.683.04-.9.04-2.638s-.009-1.957-.04-2.64c-.032-.68-.14-1.146-.297-1.553a3.141 3.141 0 00-.739-1.133 3.128 3.128 0 00-1.133-.738C10.784.777 10.32.669 9.637.638 8.955.608 8.737.6 7 .6zm-.573 1.153H7c1.708 0 1.911.006 2.586.037.624.028.963.133 1.188.22.299.116.512.255.736.479.224.224.362.437.479.736.087.225.191.564.22 1.188.03.675.037.877.037 2.585s-.006 1.91-.037 2.586c-.029.624-.133.962-.22 1.188a1.98 1.98 0 01-.48.735 1.98 1.98 0 01-.735.478c-.225.088-.564.192-1.188.221-.675.03-.878.037-2.586.037-1.71 0-1.912-.006-2.586-.037-.624-.029-.963-.133-1.189-.22a1.982 1.982 0 01-.736-.48 1.984 1.984 0 01-.479-.735c-.087-.225-.192-.564-.22-1.188-.03-.675-.037-.877-.037-2.586 0-1.71.006-1.911.037-2.586.028-.624.133-.962.22-1.188a1.97 1.97 0 01.48-.736c.223-.224.436-.363.735-.479.226-.088.565-.192 1.189-.22.59-.027.819-.035 2.012-.037v.002zm3.99 1.063a.768.768 0 100 1.535.768.768 0 000-1.535zm-3.416.897a3.287 3.287 0 100 6.574 3.287 3.287 0 000-6.574zm0 1.153a2.133 2.133 0 110 4.267 2.133 2.133 0 010-4.267z" fill="#fff"/></svg>