<svg width="10" height="16" fill="none" xmlns="http://www.w3.org/2000/svg"><path d="M4.762 8.41H.352C.159 8.41 0 8.226 0 8c0-.227.158-.41.353-.41h4.409L3.328 5.7a.456.456 0 01.03-.576c.145-.15.368-.134.496.035l1.951 2.57a.459.459 0 01-.002.545L3.854 10.84a.318.318 0 01-.496.036.457.457 0 01-.03-.577l1.434-1.89zm.606 7.578c-.2.056-.402-.086-.45-.316-.049-.23.074-.463.275-.518.481-.135.897-.23 1.279-.316 1.81-.413 2.78-.634 2.78-3.535V4.46c0-2.71-1.026-2.932-2.726-3.297A20.97 20.97 0 015.193.845c-.2-.056-.324-.287-.275-.518.048-.23.25-.372.45-.316.455.127.892.221 1.296.308C8.744.767 10 1.037 10 4.46v6.843c0 3.607-1.182 3.877-3.385 4.379-.392.09-.819.186-1.247.306z" fill="#fff"/></svg>